<svg width="64" height="41" viewBox="0 0 64 41" fill="none" xmlns="http://www.w3.org/2000/svg">
<path d="M19.0534 19.4164H29.6144L29.5624 16.8907H19.4696C19.1054 16.8907 18.9494 16.7328 18.9494 16.4171V13.7335H28.1577V11.2604H18.9494V8.73474C18.9494 8.41902 19.1054 8.20855 19.4696 8.20855H29.6144V5.68284H19.2615C16.9724 5.68284 15.984 6.41951 15.984 8.78736V16.4697C15.984 18.4166 16.8684 19.4164 19.0534 19.4164ZM3.86226 19.4164H11.3538C13.7469 19.4164 14.5273 18.5745 14.5273 16.4697V13.8914C14.5273 11.7866 13.7469 10.9447 11.3538 10.9447H3.55012V8.73474C3.55012 8.41902 3.70619 8.26117 4.07036 8.26117H13.851L13.903 5.68284H3.65416C1.46913 5.68284 0.584717 6.62998 0.584717 8.6295V16.3119C0.584717 18.6797 1.62521 19.4164 3.86226 19.4164ZM3.55012 13.4704H10.9896C11.3538 13.4704 11.5099 13.6283 11.5099 13.9966V16.3645C11.5099 16.7328 11.3538 16.8907 10.9896 16.8907H4.07036C3.70619 16.8907 3.55012 16.7328 3.55012 16.4171V13.4704ZM39.291 9.15569C39.447 8.89259 39.7072 8.73474 40.0193 8.73474H41.5801V19.4164H44.5454V5.68284H39.2389C38.4586 5.68284 37.6782 6.15641 37.314 6.84046L30.7069 19.4164H33.8284L39.291 9.15569ZM39.7072 32.4659H34.2446V29.7297H43.8691V27.1513H31.2272V40.8849H39.6031C43.1928 40.8849 44.6495 39.0432 44.6495 36.6227C44.7015 34.2549 43.2969 32.4659 39.7072 32.4659ZM39.7072 38.4118H34.2446V35.0442H39.7592C41.1118 35.0442 41.6321 35.8335 41.6321 36.728C41.6321 37.6225 41.1118 38.4118 39.7072 38.4118ZM53.5457 0L47.927 5.68284H57.6556V15.5226L63.2743 9.83973V0H53.5457ZM53.8578 0.736665H61.2973L50.3722 4.26213L53.8578 0.736665ZM62.4939 9.52402L58.384 13.6809V5.68284V4.94618H57.6556H50.9965L62.4939 1.15762V9.52402ZM44.5975 21.9947H0.584717V24.6256H44.5975V21.9947ZM23.0073 27.204H16.2441V29.7823H22.6951C24.6201 29.7823 25.9727 30.9925 26.4409 32.8342H17.7008V35.3073H26.3889C25.9727 37.2016 24.568 38.3592 22.6431 38.3592H16.2441V40.9375H22.9553C26.9091 40.9375 29.6664 38.1487 29.6664 34.0444C29.6664 29.9928 26.9612 27.204 23.0073 27.204ZM12.5504 33.7813C13.6949 33.2025 14.2151 32.2554 14.2151 30.9925C14.2151 28.7299 12.7064 27.204 9.16877 27.204H0.584717V40.9375H9.63699C13.2267 40.9375 14.6834 39.2537 14.6834 36.9911C14.6834 35.4651 14.0591 34.3601 12.5504 33.7813ZM3.55012 29.7297H9.16877C10.5214 29.7297 11.0416 30.5716 11.0416 31.4135C11.0416 32.2554 10.5214 32.9394 9.16877 32.9394H3.55012V29.7297ZM9.74103 38.4118H3.55012V35.0968H9.68901C11.0937 35.0968 11.6139 35.8335 11.6139 36.728C11.6139 37.6225 11.0937 38.4118 9.74103 38.4118Z" fill="#424449"/>
</svg>
